<?xml version="1.0" encoding="UTF-8" standalone="no" ?>
<!DOCTYPE svg PUBLIC "-//W3C//DTD SVG 1.1//EN" "http://www.w3.org/Graphics/SVG/1.1/DTD/svg11.dtd">
<svg xmlns="http://www.w3.org/2000/svg" xmlns:xlink="http://www.w3.org/1999/xlink" version="1.1" width="1280" height="1024" viewBox="0 0 1280 1024" xml:space="preserve">
<desc>Created with Fabric.js 5.3.0</desc>
<defs>
</defs>
<g transform="matrix(1 0 0 1 640 512)" id="background-logo"  >
<rect style="stroke: none; stroke-width: 0; stroke-dasharray: none; stroke-linecap: butt; stroke-dashoffset: 0; stroke-linejoin: miter; stroke-miterlimit: 4; fill: rgb(251,254,255); fill-rule: nonzero; opacity: 1;"  paint-order="stroke"  x="-640" y="-512" rx="0" ry="0" width="1280" height="1024" />
</g>
<g transform="matrix(2.1106435663056677 0 0 2.1106435663056677 640.7861684714177 389.1211055618285)" id="logo-logo"  >
<g style=""  paint-order="stroke"   >
		<g transform="matrix(2.1793137788384986 0 0 -2.1793137788384986 62.54019469864494 -8.474331780851742)"  >
<path style="stroke: none; stroke-width: 1; stroke-dasharray: none; stroke-linecap: butt; stroke-dashoffset: 0; stroke-linejoin: miter; stroke-miterlimit: 4; fill: rgb(37,164,181); fill-rule: nonzero; opacity: 1;"  paint-order="stroke"  transform=" translate(5.211055576611601, 2.9830678101249326)" d="M 0 0 C -0.557 1.511 -1.222 2.768 -1.862 3.781 C -2.0100000000000002 6.59 -2.537 9.212 -3.473 10.429 C -5.522 13.093 -7.734999999999999 13.749 -7.734999999999999 13.749 C -7.734999999999999 13.749 -5.158999999999999 7.3950000000000005 -6.709 1.4570000000000007 C -7.26 -0.6549999999999994 -8.030999999999999 -2.706999999999999 -8.799 -4.759999999999999 C -9.334999999999999 -6.189999999999999 -9.947 -7.6469999999999985 -10.224 -9.137999999999998 C -10.552 -10.904999999999998 -10.52 -12.849999999999998 -9.766 -14.438999999999998 C -9.451 -15.101999999999999 -8.944 -15.798999999999998 -8.273 -16.139 C -6.9959999999999996 -16.785 -6.394 -15.401 -6.083 -14.309 C -5.993 -15.039 -5.836 -15.756 -5.589 -16.441 C -5.1240000000000006 -17.732 -4.208 -19.067999999999998 -2.8720000000000003 -19.567 C -0.9760000000000004 -20.277 -0.5550000000000002 -18.28 -0.5500000000000003 -16.862000000000002 C -0.5420000000000003 -14.550000000000002 -1.0110000000000003 -12.258000000000003 -0.9070000000000003 -9.942000000000002 C -0.8600000000000002 -8.878000000000002 -0.7190000000000003 -7.703000000000002 -0.0810000000000003 -6.812000000000002 z" stroke-linecap="round" />
</g>
		<g transform="matrix(2.1793137788384986 0 0 -2.1793137788384986 19.164264208789405 -41.273151931910775)"  >
<path style="stroke: none; stroke-width: 1; stroke-dasharray: none; stroke-linecap: butt; stroke-dashoffset: 0; stroke-linejoin: miter; stroke-miterlimit: 4; fill: rgb(37,164,181); fill-rule: nonzero; opacity: 1;"  paint-order="stroke"  transform=" translate(-3.6498633776376224, -3.1229999999999976)" d="M 0 0 C -1.798 3.697 -2.716 7.759 -2.262 12.026 C -1.445 19.721 3.0559999999999996 26.505 7.605 32.528999999999996 C 7.605 32.528999999999996 -7.3759999999999994 23.138999999999996 -7.045 8.269999999999996 C -6.654 -9.316000000000003 9.35 -11.717000000000002 14.161 -26.283 C 14.68 -22.751 14.142 -19.224 12.408999999999999 -16.090000000000003 C 10.695999999999998 -12.995000000000003 8.128999999999998 -10.570000000000004 5.708999999999999 -8.043000000000003 C 3.414 -5.646 1.429 -2.938 0 0" stroke-linecap="round" />
</g>
		<g transform="matrix(2.1793137788384986 0 0 -2.1793137788384986 -19.16534691018427 41.27402365742233)"  >
<path style="stroke: none; stroke-width: 1; stroke-dasharray: none; stroke-linecap: butt; stroke-dashoffset: 0; stroke-linejoin: miter; stroke-miterlimit: 4; fill: rgb(37,164,181); fill-rule: nonzero; opacity: 1;"  paint-order="stroke"  transform=" translate(3.6498633776376224, 3.1229999999999976)" d="M 0 0 C 1.798 -3.697 2.716 -7.759 2.262 -12.026 C 1.445 -19.721 -3.0559999999999996 -26.505 -7.605 -32.528999999999996 C -7.605 -32.528999999999996 7.3759999999999994 -23.138999999999996 7.045 -8.269999999999996 C 6.654 9.316000000000003 -9.35 11.717000000000002 -14.161 26.283 C -14.68 22.751 -14.142 19.224 -12.408999999999999 16.090000000000003 C -10.695999999999998 12.995000000000003 -8.128999999999998 10.570000000000004 -5.708999999999999 8.043000000000003 C -3.414 5.646 -1.429 2.938 0 0" stroke-linecap="round" />
</g>
		<g transform="matrix(2.1793137788384986 0 0 -2.1793137788384986 -62.54193119417346 8.474736991989062)"  >
<path style="stroke: none; stroke-width: 1; stroke-dasharray: none; stroke-linecap: butt; stroke-dashoffset: 0; stroke-linejoin: miter; stroke-miterlimit: 4; fill: rgb(37,164,181); fill-rule: nonzero; opacity: 1;"  paint-order="stroke"  transform=" translate(4.554944423388397, 11.45561812507231)" d="M 0 0 C -0.315 0.663 -0.822 1.36 -1.493 1.7 C -2.77 2.346 -3.372 0.963 -3.683 -0.13 C -3.772 0.6 -3.929 1.317 -4.176 2.002 C -4.641 3.293 -5.558 4.629 -6.894 5.129 C -8.79 5.838 -9.211 3.841 -9.216 2.423 C -9.223999999999998 0.11100000000000021 -8.754999999999999 -2.1799999999999997 -8.857999999999999 -4.497 C -8.905999999999999 -5.561 -9.046 -6.736 -9.684999999999999 -7.627 L -9.765999999999998 -14.439 C -9.208999999999998 -15.95 -8.543999999999999 -17.207 -7.903999999999998 -18.22 C -7.7559999999999985 -21.029 -7.227999999999998 -23.651 -6.291999999999998 -24.868 C -4.2429999999999986 -27.531 -2.030999999999998 -28.188 -2.030999999999998 -28.188 C -2.030999999999998 -28.188 -4.605999999999998 -21.834 -3.0569999999999977 -15.895999999999999 C -2.5059999999999976 -13.783999999999999 -1.7339999999999978 -11.732 -0.9659999999999975 -9.678999999999998 C -0.4309999999999975 -8.248999999999999 0.1810000000000025 -6.791999999999998 0.4580000000000024 -5.300999999999998 C 0.786 -3.534 0.754 -1.589 0 0" stroke-linecap="round" />
</g>
		<g transform="matrix(2.1793137788384986 0 0 -2.1793137788384986 -0.000105487941652882 0)"  >
<path style="stroke: none; stroke-width: 1; stroke-dasharray: none; stroke-linecap: butt; stroke-dashoffset: 0; stroke-linejoin: miter; stroke-miterlimit: 4; fill: rgb(18,108,132); fill-rule: nonzero; opacity: 1;"  paint-order="stroke"  transform=" translate(3.9205000000000005, -47.18250000000002)" d="M 0 0 C -0.221 0 -0.4 0.18 -0.4 0.4 C -0.4 1.2000000000000002 -1.0510000000000002 1.851 -1.851 1.851 C -2.071 1.851 -2.251 2.03 -2.251 2.251 C -2.251 2.472 -2.0709999999999997 2.651 -1.851 2.651 C -0.609 2.651 0.4 1.642 0.4 0.4 C 0.4 0.18 0.221 0 0 0 M -1.85 4.251 C -3.977 4.251 -5.7010000000000005 2.527 -5.7010000000000005 0.40000000000000036 C -5.7010000000000005 -1.7259999999999995 -3.9770000000000003 -3.4499999999999997 -1.8500000000000005 -3.4499999999999997 C 0.276 -3.45 2 -1.726 2 0.4 C 2 2.527 0.276 4.251 -1.85 4.251 M 10.641 21.375 C 10.42 21.375 10.24 21.555 10.24 21.775 C 10.24 23.105999999999998 9.158 24.188 7.827 24.188 C 7.606 24.188 7.427 24.368 7.427 24.589 C 7.427 24.81 7.606 24.988999999999997 7.827 24.988999999999997 C 9.599 24.988999999999997 11.041 23.546999999999997 11.041 21.775 C 11.041 21.555 10.861 21.375 10.641 21.375 M 7.827999999999999 26.589 C 5.169 26.589 3.0149999999999997 24.433999999999997 3.0149999999999997 21.776 C 3.0149999999999997 19.118 5.169 16.963 7.827999999999999 16.963 C 10.485999999999999 16.963 12.640999999999998 19.118000000000002 12.640999999999998 21.776 C 12.640999999999998 24.434 10.485999999999999 26.589 7.8279999999999985 26.589 M 7.771 9.265 C 7.551 9.265 7.3709999999999996 9.444 7.3709999999999996 9.665000000000001 C 7.3709999999999996 10.996 6.289 12.078000000000001 4.959 12.078000000000001 C 4.7379999999999995 12.078000000000001 4.558999999999999 12.258000000000001 4.558999999999999 12.479000000000001 C 4.558999999999999 12.699000000000002 4.7379999999999995 12.879000000000001 4.959 12.879000000000001 C 6.7299999999999995 12.879000000000001 8.172 11.437000000000001 8.172 9.665000000000001 C 8.172 9.444 7.992000000000001 9.265 7.771000000000001 9.265 M 4.959000000000001 14.478000000000002 C 2.3010000000000015 14.478000000000002 0.14600000000000168 12.323000000000002 0.14600000000000168 9.665000000000003 C 0.14600000000000168 7.007000000000003 2.3010000000000015 4.852000000000003 4.959000000000001 4.852000000000003 C 7.617000000000001 4.852000000000003 9.772000000000002 7.007000000000003 9.772000000000002 9.665000000000003 C 9.772000000000002 12.323000000000002 7.617000000000003 14.478000000000002 4.959000000000002 14.478000000000002 M 5.204000000000002 39.765 C 7.685000000000002 39.765 9.702000000000002 37.747 9.702000000000002 35.267 C 9.702000000000002 35.04600000000001 9.522000000000002 34.866 9.302000000000001 34.866 C 9.081000000000001 34.866 8.901000000000002 35.046 8.901000000000002 35.267 C 8.901000000000002 37.306000000000004 7.243000000000002 38.964000000000006 5.2040000000000015 38.964000000000006 C 4.983000000000001 38.964000000000006 4.804000000000001 39.144000000000005 4.804000000000001 39.364000000000004 C 4.804000000000001 39.585 4.983000000000001 39.76500000000001 5.2040000000000015 39.76500000000001 M -0.8929999999999989 35.26700000000001 C -0.8929999999999989 31.89900000000001 1.837000000000001 29.16900000000001 5.2040000000000015 29.16900000000001 C 8.572000000000001 29.16900000000001 11.302000000000001 31.89900000000001 11.302000000000001 35.26700000000001 C 11.302000000000001 38.63400000000001 8.572000000000001 41.36400000000001 5.2040000000000015 41.36400000000001 C 1.8370000000000015 41.36400000000001 -0.8929999999999989 38.634000000000015 -0.8929999999999989 35.26700000000001 M -12.8 87.912 C -11.028 87.912 -9.587 86.471 -9.587 84.69900000000001 C -9.587 84.47900000000001 -9.766 84.299 -9.987 84.299 C -10.208 84.299 -10.387 84.47900000000001 -10.387 84.69900000000001 C -10.387 86.03000000000002 -11.47 87.11200000000001 -12.8 87.11200000000001 C -13.021 87.11200000000001 -13.200000000000001 87.29200000000002 -13.200000000000001 87.51200000000001 C -13.200000000000001 87.73300000000002 -13.021 87.91200000000002 -12.8 87.91200000000002 M -12.8 79.88600000000002 C -10.142000000000001 79.88600000000002 -7.987000000000001 82.04100000000003 -7.987000000000001 84.69900000000003 C -7.987000000000001 87.35700000000003 -10.142000000000001 89.51200000000003 -12.8 89.51200000000003 C -15.458 89.51200000000003 -17.613 87.35700000000003 -17.613 84.69900000000003 C -17.613 82.04100000000003 -15.458 79.88600000000002 -12.8 79.88600000000002 M -15.669 75.80200000000002 C -13.897 75.80200000000002 -12.456 74.36000000000003 -12.456 72.58900000000003 C -12.456 72.36800000000002 -12.635 72.18900000000002 -12.856 72.18900000000002 C -13.077 72.18900000000002 -13.256 72.36800000000002 -13.256 72.58900000000003 C -13.256 73.91900000000003 -14.338000000000001 75.00200000000002 -15.669 75.00200000000002 C -15.89 75.00200000000002 -16.069 75.18100000000003 -16.069 75.40200000000003 C -16.069 75.62300000000003 -15.889999999999999 75.80200000000004 -15.668999999999999 75.80200000000004 M -15.668999999999999 67.77600000000004 C -13.011 67.77600000000004 -10.855999999999998 69.93100000000004 -10.855999999999998 72.58900000000004 C -10.855999999999998 75.24700000000004 -13.010999999999997 77.40200000000004 -15.668999999999997 77.40200000000004 C -18.326999999999998 77.40200000000004 -20.481999999999996 75.24700000000004 -20.481999999999996 72.58900000000004 C -20.481999999999996 69.93100000000004 -18.326999999999995 67.77600000000004 -15.668999999999997 67.77600000000004 M -5.990999999999996 96.21400000000004 C -4.7499999999999964 96.21400000000004 -3.740999999999996 95.20500000000004 -3.740999999999996 93.96400000000004 C -3.740999999999996 93.74400000000004 -3.919999999999996 93.56400000000004 -4.1409999999999965 93.56400000000004 C -4.360999999999996 93.56400000000004 -4.540999999999997 93.74400000000004 -4.540999999999997 93.96400000000004 C -4.540999999999997 94.76400000000004 -5.190999999999997 95.41500000000003 -5.990999999999997 95.41500000000003 C -6.211999999999997 95.41500000000003 -6.390999999999997 95.59400000000004 -6.390999999999997 95.81400000000004 C -6.390999999999997 96.03500000000004 -6.211999999999997 96.21400000000004 -5.990999999999997 96.21400000000004 M -5.990999999999997 90.11400000000005 C -3.864999999999997 90.11400000000005 -2.140999999999997 91.83800000000005 -2.140999999999997 93.96400000000004 C -2.140999999999997 96.09100000000004 -3.8649999999999967 97.81500000000004 -5.990999999999997 97.81500000000004 C -8.117999999999997 97.81500000000004 -9.841999999999997 96.09100000000004 -9.841999999999997 93.96400000000004 C -9.841999999999997 91.83800000000004 -8.117999999999997 90.11400000000005 -5.990999999999997 90.11400000000005 M -9.348 59.098 C -9.348 61.137 -11.007000000000001 62.795 -13.046000000000001 62.795 C -13.267000000000001 62.795 -13.446000000000002 62.975 -13.446000000000002 63.195 C -13.446000000000002 63.416 -13.267000000000001 63.595 -13.046000000000001 63.595 C -10.566 63.595 -8.548000000000002 61.577999999999996 -8.548000000000002 59.098 C -8.548000000000002 58.877 -8.728000000000002 58.698 -8.948000000000002 58.698 C -9.169000000000002 58.698 -9.348000000000003 58.877 -9.348000000000003 59.098 M -6.948000000000002 59.098 C -6.948000000000002 62.466 -9.678000000000003 65.195 -13.046000000000003 65.195 C -16.413000000000004 65.195 -19.143000000000004 62.465999999999994 -19.143000000000004 59.09799999999999 C -19.143000000000004 55.72999999999999 -16.413000000000004 52.99999999999999 -13.046000000000003 52.99999999999999 C -9.678000000000003 52.99999999999999 -6.948000000000003 55.72999999999999 -6.948000000000003 59.09799999999999 M -4.321000000000003 51.27899999999999 C -4.321000000000003 51.499999999999986 -4.142000000000003 51.67999999999999 -3.9210000000000034 51.67999999999999 C -1.4400000000000035 51.67999999999999 0.5769999999999968 49.66199999999999 0.5769999999999968 47.18299999999999 C 0.5769999999999968 46.961999999999996 0.39699999999999686 46.78199999999999 0.17699999999999683 46.78199999999999 C -0.044000000000003175 46.78199999999999 -0.2240000000000032 46.96199999999999 -0.2240000000000032 47.18299999999999 C -0.2240000000000032 49.22099999999999 -1.8820000000000032 50.87899999999999 -3.9210000000000034 50.87899999999999 C -4.142000000000003 50.87899999999999 -4.321000000000003 51.05899999999999 -4.321000000000003 51.27899999999999 M 2.176999999999997 47.18199999999999 C 2.176999999999997 50.54999999999999 -0.553000000000003 53.27999999999999 -3.921000000000003 53.27999999999999 C -7.288000000000003 53.27999999999999 -10.018000000000004 50.54999999999999 -10.018000000000004 47.18199999999999 C -10.018000000000004 43.81499999999999 -7.288000000000004 41.08499999999999 -3.921000000000004 41.08499999999999 C -0.5530000000000039 41.08499999999999 2.176999999999996 43.81499999999998 2.176999999999996 47.18199999999999" stroke-linecap="round" />
</g>
		<g transform="matrix(2.1793137788384986 0 0 -2.1793137788384986 51.99660223468618 -30.82094432302972)"  >
<path style="stroke: none; stroke-width: 1; stroke-dasharray: none; stroke-linecap: butt; stroke-dashoffset: 0; stroke-linejoin: miter; stroke-miterlimit: 4; fill: rgb(18,108,132); fill-rule: nonzero; opacity: 1;"  paint-order="stroke"  transform=" translate(15.741888798967546, -25.220199635576243)" d="M 0 0 C -0.899 4.085 -2.431 7.86 -2.801 12.067 C -3.1830000000000003 16.405 -3.2030000000000003 20.823999999999998 -4.394 25.044 C -6.209 31.472 -10.434000000000001 36.636 -15.994 40.214 C -18.941 42.11 -21.21 44.774 -22.835 47.179 C -22.184 41.765 -17.736 37.848 -17.736 37.848 C -30.174 45.348 -25.966 52.985 -25.966 52.985 C -25.966 52.985 -34.824 40.973 -30.343 29.881 C -25.863 18.79 -20.305999999999997 17.665 -18.662 13.678 C -17.018 9.692 -15.152999999999999 10.262 -14.119 10.928 C -13.086 11.595 -12.143 14.859000000000002 -15.455 19.489 C -18.767 24.12 -20.771 27.67 -17.433 28.097 C -14.094 28.523 -9.494 21.858 -9.251 14.831000000000001 C -8.977 6.891000000000001 -7.193999999999999 0.2760000000000016 -3.071999999999999 -1.9489999999999998 C -0.903 -3.12 0.575 -2.612 0 0" stroke-linecap="round" />
</g>
		<g transform="matrix(2.1793137788384986 0 0 -2.1793137788384986 -51.99701912045873 30.82168733866706)"  >
<path style="stroke: none; stroke-width: 1; stroke-dasharray: none; stroke-linecap: butt; stroke-dashoffset: 0; stroke-linejoin: miter; stroke-miterlimit: 4; fill: rgb(18,108,132); fill-rule: nonzero; opacity: 1;"  paint-order="stroke"  transform=" translate(14.601305684851734, -4.661059424241348)" d="M 0 0 C -4.48 11.092 -10.037 12.217 -11.681 16.203 C -13.325 20.189999999999998 -15.190999999999999 19.619999999999997 -16.224 18.953 C -17.258 18.285999999999998 -18.2 15.023 -14.888 10.392 C -11.576 5.762 -9.572 2.2110000000000003 -12.911 1.7850000000000001 C -16.249 1.358 -20.849 8.024000000000001 -21.092 15.05 C -21.366999999999997 22.991 -23.15 29.605 -27.272 31.831 C -29.439999999999998 33.001 -30.918 32.494 -30.343 29.881 C -29.445 25.796 -27.913 22.021 -27.542 17.814 C -27.16 13.477 -27.141000000000002 9.057 -25.949 4.837 C -24.135 -1.5910000000000002 -19.909000000000002 -6.755000000000001 -14.350000000000001 -10.332 C -11.402000000000001 -12.229000000000001 -9.133000000000003 -14.893 -7.508000000000002 -17.298000000000002 C -8.160000000000002 -11.884000000000002 -12.607000000000003 -7.967000000000002 -12.607000000000003 -7.967000000000002 C -0.17000000000000348 -15.467000000000002 -4.3770000000000024 -23.104000000000003 -4.3770000000000024 -23.104000000000003 C -4.3770000000000024 -23.104000000000003 4.479999999999997 -11.092000000000002 -2.6645352591003757e-15 -3.552713678800501e-15" stroke-linecap="round" />
</g>
</g>
</g>
<g transform="matrix(1.9211538461538462 0 0 1.9211538461538462 636.0944496237709 716.9386621165448)" id="text-logo"  >
<g style=""  paint-order="stroke"   >
		<g transform="matrix(1 0 0 1 0 0)" id="text-logo-path-0"  >
<path style="stroke: rgb(255,255,255); stroke-width: 0; stroke-dasharray: none; stroke-linecap: butt; stroke-dashoffset: 0; stroke-linejoin: miter; stroke-miterlimit: 4; fill: rgb(18,108,132); fill-rule: nonzero; opacity: 1;"  paint-order="stroke"  transform=" translate(-261.695, 18.185)" d="M 3.48 4.47 L 4.87 5.39 C 10.9 5.39 15.78 0.52 15.78 -5.51 L 15.78 -32.25 L 11.89 -32.25 L 11.89 -5.51 C 11.89 -0.41 8.64 4.47 3.48 4.47 Z M 43.91 -32.25 L 39.56 -32.25 L 29.75 0 L 31.38 0 L 34.8 -11.19 L 45.99 -11.19 L 49.42 0 L 53.71 0 Z M 35.26 -12.82 L 40.37 -29.58 L 45.47 -12.82 Z M 90.36 -32.25 L 90.36 -2.67 L 72.56 -32.25 L 67.69 -32.25 L 67.69 0 L 69.31 0 L 69.31 -29.58 L 87.17 0 L 91.99 0 L 91.99 -32.25 Z M 110.26 -32.25 L 105.97 -32.25 L 105.97 0 L 110.26 0 Z M 146.91 -32.25 L 146.91 -2.67 L 129.11 -32.25 L 124.24 -32.25 L 124.24 0 L 125.86 0 L 125.86 -29.58 L 143.72 0 L 148.54 0 L 148.54 -32.25 Z M 183.22 -30.62 L 183.22 -32.25 L 162.52 -32.25 L 162.52 0 L 183.22 0 L 183.22 -1.62 L 166.81 -1.62 L 166.81 -15.31 L 176.84 -15.31 L 176.84 -16.94 L 166.81 -16.94 L 166.81 -30.62 Z M 250.04 -30.62 L 250.04 -32.25 L 229.33 -32.25 L 229.33 0 L 250.04 0 L 250.04 -1.62 L 233.62 -1.62 L 233.62 -15.31 L 243.66 -15.31 L 243.66 -16.94 L 233.62 -16.94 L 233.62 -30.62 Z M 273.47 -32.25 L 264.02 -32.25 L 264.02 0 L 277.12 0 C 282.4 -0.06 286.69 -4.35 286.69 -9.63 C 286.69 -14.62 282.87 -18.73 277.99 -19.2 C 279.68 -20.53 280.78 -22.62 280.78 -24.94 C 280.78 -28.94 277.53 -32.25 273.47 -32.25 Z M 268.31 -1.62 L 268.31 -17.63 L 274.92 -17.63 C 279.04 -17.63 282.4 -14.04 282.4 -9.63 C 282.4 -5.22 279.04 -1.62 274.92 -1.62 Z M 268.31 -19.26 L 268.31 -30.62 L 271.32 -30.62 C 274.17 -30.62 276.49 -28.07 276.49 -24.94 C 276.49 -21.81 274.17 -19.26 271.32 -19.26 Z M 321.38 -30.62 L 321.38 -32.25 L 300.67 -32.25 L 300.67 0 L 321.38 0 L 321.38 -1.62 L 304.96 -1.62 L 304.96 -15.31 L 315 -15.31 L 315 -16.94 L 304.96 -16.94 L 304.96 -30.62 Z M 358.03 -32.25 L 358.03 -2.67 L 340.23 -32.25 L 335.36 -32.25 L 335.36 0 L 336.98 0 L 336.98 -29.58 L 354.84 0 L 359.66 0 L 359.66 -32.25 Z M 383.09 -32.25 L 373.64 -32.25 L 373.64 0 L 386.74 0 C 392.02 -0.06 396.31 -4.35 396.31 -9.63 C 396.31 -14.62 392.49 -18.73 387.61 -19.2 C 389.3 -20.53 390.4 -22.62 390.4 -24.94 C 390.4 -28.94 387.15 -32.25 383.09 -32.25 Z M 377.93 -1.62 L 377.93 -17.63 L 384.54 -17.63 C 388.66 -17.63 392.02 -14.04 392.02 -9.63 C 392.02 -5.22 388.66 -1.62 384.54 -1.62 Z M 377.93 -19.26 L 377.93 -30.62 L 380.94 -30.62 C 383.79 -30.62 386.11 -28.07 386.11 -24.94 C 386.11 -21.81 383.79 -19.26 380.94 -19.26 Z M 419.75 -39.61 C 419.75 -38.4 420.67 -37.47 421.89 -37.47 C 423.05 -37.47 424.04 -38.4 424.04 -39.61 C 424.04 -40.77 423.05 -41.76 421.89 -41.76 C 420.67 -41.76 419.75 -40.77 419.75 -39.61 Z M 410.29 -16.12 C 410.29 -7.25 417.25 0.52 425.89 0.52 C 434.54 0.52 441.5 -7.25 441.5 -16.12 C 441.5 -25 434.54 -32.77 425.89 -32.77 C 417.31 -32.77 410.29 -25 410.29 -16.12 Z M 414.58 -16.12 C 414.58 -24.13 419.63 -31.15 425.89 -31.15 C 432.16 -31.15 437.2 -24.13 437.2 -16.12 C 437.2 -8.12 432.16 -1.1 425.89 -1.1 C 419.63 -1.1 414.58 -8.12 414.58 -16.12 Z M 427.75 -39.61 C 427.75 -38.4 428.74 -37.47 429.9 -37.47 C 431.11 -37.47 432.04 -38.4 432.04 -39.61 C 432.04 -40.77 431.11 -41.76 429.9 -41.76 C 428.74 -41.76 427.75 -40.77 427.75 -39.61 Z M 471.08 0.52 C 475.54 0.52 479.54 -1.57 482.39 -4.81 L 480.07 -7.13 C 477.98 -3.54 474.73 -1.1 471.08 -1.1 C 464.81 -1.1 459.77 -8.12 459.77 -16.12 C 459.77 -24.13 464.81 -31.15 471.08 -31.15 C 474.73 -31.15 477.98 -28.71 480.07 -25.11 L 482.39 -27.43 C 479.54 -30.68 475.54 -32.77 471.08 -32.77 C 462.49 -32.77 455.47 -25 455.47 -16.12 C 455.47 -7.25 462.43 0.52 471.08 0.52 Z M 500.66 -16.01 L 500.66 -32.25 L 496.36 -32.25 L 496.36 0 L 500.66 0 L 500.66 -13.63 L 502.86 -16.07 L 514.58 0 L 519.91 0 L 505.82 -19.37 L 517.36 -32.25 L 515.21 -32.25 Z" stroke-linecap="round" />
</g>
</g>
</g>
<g transform="matrix(1.9211538461538462 0 0 1.9211538461538462 647.3861291711266 843.0125611561748)" id="tagline-fc8f48f5-d343-426f-a4e2-3ea88d9d7301-logo"  >
<g style=""  paint-order="stroke"   >
		<g transform="matrix(1 0 0 1 0 0)" id="tagline-fc8f48f5-d343-426f-a4e2-3ea88d9d7301-logo-path-0"  >
<path style="stroke: none; stroke-width: 0; stroke-dasharray: none; stroke-linecap: butt; stroke-dashoffset: 0; stroke-linejoin: miter; stroke-miterlimit: 4; fill: rgb(84,148,164); fill-rule: nonzero; opacity: 1;"  paint-order="stroke"  transform=" translate(-173.45000000000002, 8.305)" d="M 10.92 -21.68 L 2.34 -21.68 L 2.34 0 L 5.23 0 L 5.23 -6.43 L 10.92 -6.43 C 15.13 -6.43 18.52 -9.87 18.52 -14.08 C 18.52 -18.25 15.13 -21.68 10.92 -21.68 Z M 5.23 -7.53 L 5.23 -20.59 L 9.48 -20.59 C 12.87 -20.59 15.64 -17.67 15.64 -14.08 C 15.64 -10.45 12.87 -7.53 9.48 -7.53 Z M 32.56 -21.68 L 29.68 -21.68 L 29.68 0 L 32.56 0 L 32.56 -10.3 L 43.09 -10.3 L 43.09 0 L 45.98 0 L 45.98 -21.68 L 43.09 -21.68 L 43.09 -11.39 L 32.56 -11.39 Z M 64.9 -12.13 L 60.02 -21.68 L 57.14 -21.68 L 62.56 -11.08 L 62.56 0 L 65.44 0 L 65.44 -11.08 L 70.86 -21.68 L 69.77 -21.68 Z M 81.94 -6.63 L 80.85 -6.63 C 81.04 -2.22 85.14 0.55 89.27 0.55 C 92.55 0.55 96.25 -1.09 97.31 -4.45 C 97.73 -5.77 97.81 -7.21 97.31 -8.66 C 96.37 -11.35 93.64 -12.48 91.18 -13.46 C 90.13 -13.88 89.08 -14.23 88.14 -14.7 C 87.17 -15.17 85.96 -15.83 85.84 -17.04 C 85.8 -17.39 85.84 -17.78 85.92 -18.17 C 86.31 -20.09 88.06 -21.14 89.9 -21.14 C 91.06 -21.14 92.08 -20.67 92.9 -19.89 C 93.64 -19.19 94.07 -18.14 93.95 -17.16 L 95.04 -17.16 C 94.85 -20.24 91.92 -22.23 89.04 -22.23 C 85.92 -22.23 82.95 -20.2 82.95 -16.93 C 82.95 -14.55 84.79 -12.79 86.89 -11.97 C 88.02 -11.51 89.12 -11.15 90.17 -10.76 C 91.77 -10.18 93.72 -9.24 94.5 -7.61 C 94.81 -6.94 94.81 -5.97 94.69 -5.15 C 94.26 -2.22 91.22 -0.55 88.49 -0.55 C 86.15 -0.55 83.93 -1.6 82.68 -3.63 C 82.13 -4.52 81.86 -5.58 81.94 -6.63 Z M 111.73 -21.68 L 108.85 -21.68 L 108.85 0 L 111.73 0 Z M 122.89 -10.84 C 122.89 -4.88 127.57 0.35 133.38 0.35 C 139.19 0.35 143.87 -4.88 143.87 -10.84 C 143.87 -16.81 139.19 -22.04 133.38 -22.04 C 127.61 -22.04 122.89 -16.81 122.89 -10.84 Z M 125.78 -10.84 C 125.78 -16.22 129.17 -20.94 133.38 -20.94 C 137.59 -20.94 140.99 -16.22 140.99 -10.84 C 140.99 -5.46 137.59 -0.74 133.38 -0.74 C 129.17 -0.74 125.78 -5.46 125.78 -10.84 Z M 169.18 -20.59 L 169.18 -21.68 L 153.11 -21.68 L 153.11 -20.59 L 159.71 -20.59 L 159.71 0 L 162.59 0 L 162.59 -20.59 Z M 183.22 -21.68 L 180.34 -21.68 L 180.34 0 L 183.22 0 L 183.22 -10.3 L 193.75 -10.3 L 193.75 0 L 196.64 0 L 196.64 -21.68 L 193.75 -21.68 L 193.75 -11.39 L 183.22 -11.39 Z M 221.71 -20.59 L 221.71 -21.68 L 207.79 -21.68 L 207.79 0 L 221.71 0 L 221.71 -1.09 L 210.68 -1.09 L 210.68 -10.3 L 217.42 -10.3 L 217.42 -11.39 L 210.68 -11.39 L 210.68 -20.59 Z M 241.45 -21.68 L 232.87 -21.68 L 232.87 0 L 235.75 0 L 235.75 -6.43 L 238.87 -6.43 C 240.2 -6.24 241.41 -5.58 242.46 -4.68 C 244.14 -3.28 245.47 -1.44 247.14 0.16 C 248.86 1.75 250.57 3.55 252.91 4.72 C 253.97 5.26 255.29 5.62 256.54 5.62 C 257.91 5.62 259.27 5.23 260.4 4.49 L 259.97 3.51 C 259.31 3.67 258.65 3.74 258.02 3.74 C 255.29 3.74 253.54 2.26 251.63 0.51 C 250.81 -0.23 249.99 -1.05 249.21 -1.87 C 247.34 -3.86 245.11 -5.46 242.62 -6.55 C 246.25 -7.1 249.05 -10.26 249.05 -14.08 C 249.05 -18.25 245.66 -21.68 241.45 -21.68 Z M 235.75 -7.53 L 235.75 -20.59 L 240.01 -20.59 C 243.4 -20.59 246.17 -17.67 246.17 -14.08 C 246.17 -10.45 243.4 -7.53 240.01 -7.53 Z M 271.52 -21.68 L 268.59 -21.68 L 262 0 L 263.09 0 L 265.39 -7.53 L 272.92 -7.53 L 275.22 0 L 278.11 0 Z M 265.71 -8.62 L 269.14 -19.89 L 272.57 -8.62 Z M 297.84 -21.68 L 289.26 -21.68 L 289.26 0 L 292.15 0 L 292.15 -6.43 L 297.84 -6.43 C 302.05 -6.43 305.45 -9.87 305.45 -14.08 C 305.45 -18.25 302.05 -21.68 297.84 -21.68 Z M 292.15 -7.53 L 292.15 -20.59 L 296.4 -20.59 C 299.79 -20.59 302.56 -17.67 302.56 -14.08 C 302.56 -10.45 299.79 -7.53 296.4 -7.53 Z M 319.49 -21.68 L 316.6 -21.68 L 316.6 0 L 319.49 0 Z M 344.56 -20.59 L 344.56 -21.68 L 330.64 -21.68 L 330.64 0 L 344.56 0 L 344.56 -1.09 L 333.53 -1.09 L 333.53 -10.3 L 340.27 -10.3 L 340.27 -11.39 L 333.53 -11.39 L 333.53 -20.59 Z" stroke-linecap="round" />
</g>
</g>
</g>
</svg>